HIERARCHY
ROOT Hips
{
 OFFSET 0.000000 0.000000 0.000000
 CHANNELS 6 Xposition Yposition Zposition Yrotation Xrotation Zrotation
 JOINT Chest
 {
  OFFSET 0.000000 9.581000 -0.001100
  CHANNELS 3 Yrotation Xrotation Zrotation
  JOINT Chest2
  {
   OFFSET 0.000000 9.561100 0.002200
   CHANNELS 3 Yrotation Xrotation Zrotation
   JOINT Chest3
   {
    OFFSET 0.000000 9.521100 0.000000
    CHANNELS 3 Yrotation Xrotation Zrotation
    JOINT Chest4
    {
     OFFSET 0.000000 9.511400 0.000000
     CHANNELS 3 Yrotation Xrotation Zrotation
     JOINT Neck
     {
      OFFSET 0.000000 14.375100 0.000000
      CHANNELS 3 Yrotation Xrotation Zrotation
      JOINT Head
      {
       OFFSET 0.000000 8.901200 0.004600
       CHANNELS 3 Yrotation Xrotation Zrotation
       End Site
       {
        OFFSET 0.000000 16.962200 0.002400
       }
      }
     }
     JOINT RightCollar
     {
      OFFSET -2.920100 9.518800 0.000000
      CHANNELS 3 Yrotation Xrotation Zrotation
      JOINT RightShoulder
      {
       OFFSET -13.664500 0.000000 0.000000
       CHANNELS 3 Yrotation Xrotation Zrotation
       JOINT RightElbow
       {
        OFFSET 0.000000 -29.999200 0.000000
        CHANNELS 3 Yrotation Xrotation Zrotation
        JOINT RightWrist
        {
         OFFSET 0.000000 -24.253600 0.000000
         CHANNELS 3 Yrotation Xrotation Zrotation
         End Site
         {
          OFFSET 0.000000 -17.918900 0.000000
         }
        }
       }
      }
     }
     JOINT LeftCollar
     {
      OFFSET 2.920100 9.518800 0.000000
      CHANNELS 3 Yrotation Xrotation Zrotation
      JOINT LeftShoulder
      {
       OFFSET 13.664500 0.000000 0.000000
       CHANNELS 3 Yrotation Xrotation Zrotation
       JOINT LeftElbow
       {
        OFFSET 0.000000 -29.999200 0.000000
        CHANNELS 3 Yrotation Xrotation Zrotation
        JOINT LeftWrist
        {
         OFFSET 0.000000 -24.253600 0.000000
         CHANNELS 3 Yrotation Xrotation Zrotation
         End Site
         {
          OFFSET 0.000000 -17.918900 0.000000
         }
        }
       }
      }
     }
    }
   }
  }
 }
 JOINT RightHip
 {
  OFFSET -7.797300 0.005300 0.000500
  CHANNELS 3 Yrotation Xrotation Zrotation
  JOINT RightKnee
  {
   OFFSET 0.000000 -40.663400 -0.000500
   CHANNELS 3 Yrotation Xrotation Zrotation
   JOINT RightAnkle
   {
    OFFSET 0.000000 -39.523700 -0.000900
    CHANNELS 3 Yrotation Xrotation Zrotation
    JOINT RightToe
    {
     OFFSET 0.000000 -6.418000 14.485300
     CHANNELS 3 Yrotation Xrotation Zrotation
     End Site
     {
      OFFSET 0.000000 -1.465200 6.326400
     }
    }
   }
  }
 }
 JOINT LeftHip
 {
  OFFSET 7.797300 0.005300 0.000500
  CHANNELS 3 Yrotation Xrotation Zrotation
  JOINT LeftKnee
  {
   OFFSET 0.000000 -40.663400 -0.000500
   CHANNELS 3 Yrotation Xrotation Zrotation
   JOINT LeftAnkle
   {
    OFFSET 0.000000 -39.523700 -0.000900
    CHANNELS 3 Yrotation Xrotation Zrotation
    JOINT LeftToe
    {
     OFFSET 0.000000 -6.418000 14.485300
     CHANNELS 3 Yrotation Xrotation Zrotation
     End Site
     {
      OFFSET 0.000000 -1.465200 6.326400
     }
    }
   }
  }
 }
}
MOTION
Frames: 7
Frame Time: 0.008333
0.000000 86.422400 0.000000 0.000000 -5.767877 0.000000 0.000000 11.653817 0.000000 0.000000 -5.885947 0.000000 0.000000 -0.000000 0.000000 0.000000 -0.000000 0.000000 0.000000 12.528835 0.000000 0.000000 0.711642 0.000000 0.000000 -0.000000 0.000000 0.000000 0.000000 -90.000000 0.000000 -2.309062 0.000000 0.000000 2.309062 0.000000 0.000000 -0.000000 0.000000 0.000000 -0.000000 90.000000 0.000000 -2.309062 0.000000 0.000000 2.309062 0.000000 0.000000 8.520406 0.000000 0.000000 1.905762 0.000000 -0.000000 -4.658285 0.000000 0.000000 -0.000000 0.000000 0.000000 8.520406 0.000000 0.000000 1.905762 0.000000 -0.000000 -4.658285 0.000000 0.000000 -0.000000 0.000000
-9.996099 126.578302 5.206937 168.053741 -32.055719 -3.166494 2.279497 24.092721 1.968639 0.270196 3.718635 0.254629 0.469587 5.900499 0.374994 1.815622 20.093945 1.547477 0.151516 12.656065 -4.350648 1.182811 -12.396392 -4.713478 -4.076093 2.154333 0.554467 -1.609916 -12.729923 -5.068746 -85.449740 -30.886193 116.780179 -11.596381 5.896191 13.174895 -5.447468 2.119042 2.703271 0.485255 -14.294447 4.688961 67.936643 -38.661336 -104.788666 21.557101 -16.268831 -19.818949 2.991659 -51.154043 5.791950 -75.344172 83.707539 -76.224155 10.333152 -25.144333 2.223402 -0.008597 -0.018403 -0.003808 -8.982021 -44.513131 -0.469224 63.570230 81.620336 57.581084 2.840113 -8.241327 1.379517 0.001605 0.006744 0.000711
-9.994967 126.574683 5.208199 168.036446 -32.009810 -3.146787 2.269550 24.082557 1.966711 0.273342 3.717167 0.260548 0.463483 5.911958 0.383498 1.794421 20.091958 1.541666 0.425213 12.634901 -4.411944 1.469771 -12.410168 -4.843669 -3.987945 2.215735 0.603525 -1.496990 -12.859947 -5.154176 -85.172177 -30.368020 116.406743 -11.586267 5.678265 12.697606 -5.453316 2.185748 2.656112 -0.006607 -14.396827 4.777632 67.795617 -38.144830 -104.180742 21.461923 -16.618650 -18.351542 2.989760 -51.203074 5.799563 -75.513544 83.676687 -76.417396 10.348069 -25.155428 2.227667 -0.008049 -0.014386 -0.003565 -8.973353 -44.560875 -0.482543 63.606497 81.619246 57.620722 2.849721 -8.248105 1.378335 -0.001649 0.008493 -0.000731
-9.993054 126.572883 5.205838 168.020876 -31.981513 -3.123438 2.252918 24.112280 1.984971 0.281919 3.683868 0.237141 0.458771 5.932705 0.402686 1.795955 20.121181 1.586625 0.684241 12.585325 -4.530758 1.778760 -12.421628 -4.995720 -3.915988 2.249872 0.604377 -1.429314 -12.863849 -5.205920 -85.043994 -29.887048 116.378634 -11.571548 5.527789 12.450335 -5.505119 2.228771 2.547686 -0.452518 -14.459537 4.914754 67.616726 -37.441022 -103.783943 21.413956 -16.950021 -17.031621 2.985744 -51.233636 5.805650 -75.872076 83.624891 -76.807623 10.401539 -25.181679 2.228956 -0.004599 -0.011682 -0.002037 -8.954623 -44.592039 -0.502318 63.634775 81.617135 57.649163 2.852016 -8.247524 1.381100 -0.003618 0.006365 -0.001603
-9.988698 126.572225 5.201703 168.004632 -31.961151 -3.107672 2.239924 24.136742 2.008009 0.284889 3.678932 0.231953 0.457213 5.936264 0.406076 1.791451 20.125956 1.597233 0.969369 12.564731 -4.623236 2.108366 -12.438310 -5.169869 -3.831599 2.331213 0.623959 -1.365742 -12.805654 -5.226681 -85.095163 -29.488070 116.641718 -11.567062 5.460462 12.444183 -5.575202 2.317280 2.448964 -0.829328 -14.447719 5.090102 67.452662 -36.604319 -103.655820 21.464918 -17.244804 -16.052303 2.843745 -51.250052 5.924067 -75.971430 83.607045 -77.016415 10.427658 -25.198519 2.225853 0.000881 -0.014985 0.000390 -8.941191 -44.615091 -0.513189 63.675506 81.628274 57.694843 2.864036 -8.250573 1.376012 -0.004151 0.005653 -0.001839
-9.983624 126.572812 5.195250 167.997502 -31.949012 -3.094652 2.227226 24.156513 2.019003 0.278601 3.706328 0.252204 0.458822 5.914936 0.389411 1.787807 20.116282 1.589351 1.266853 12.564955 -4.695123 2.450057 -12.467571 -5.359754 -3.754209 2.461751 0.653168 -1.306224 -12.710309 -5.210680 -85.315137 -29.205122 117.157999 -11.578138 5.469518 12.661430 -5.670287 2.450552 2.361062 -1.125515 -14.352206 5.271291 67.332205 -35.704572 -103.803492 21.605937 -17.464148 -15.525417 2.782206 -51.260401 5.972158 -76.067229 83.595593 -77.159872 10.394133 -25.208973 2.223422 -0.006777 -0.018288 -0.003002 -8.929453 -44.632781 -0.529595 63.762697 81.631264 57.784891 2.868306 -8.245969 1.372547 -0.006925 0.003184 -0.003068
-9.979114 126.571518 5.191410 167.977244 -31.909836 -3.072173 2.228063 24.172873 2.036521 0.277399 3.711734 0.254118 0.459288 5.867516 0.361830 1.788546 20.197113 1.648177 1.555984 12.499551 -4.820417 2.793316 -12.514815 -5.556158 -3.698481 2.553050 0.628463 -1.278249 -12.614878 -5.157790 -85.627924 -29.037251 117.854892 -11.598812 5.516303 13.040999 -5.780390 2.536717 2.237598 -1.326832 -14.195764 5.422001 67.240465 -34.822101 -104.177195 21.781664 -17.564103 -15.481431 2.738763 -51.300933 6.004660 -76.110444 83.592142 -77.248139 10.390915 -25.213086 2.221888 -0.007245 -0.020879 -0.003209 -8.908869 -44.693122 -0.539440 63.916993 81.643356 57.943244 2.871946 -8.228760 1.366321 -0.008073 -0.007954 -0.003576
